<svg width="409" height="60" viewBox="0 0 409 60" fill="none" xmlns="http://www.w3.org/2000/svg">
<path d="M77.44 45.4C75.2533 45.4 73.16 45.0933 71.16 44.48C69.16 43.84 67.5733 43.0267 66.4 42.04L68.2 38C69.32 38.88 70.7067 39.6133 72.36 40.2C74.0133 40.7867 75.7067 41.08 77.44 41.08C78.9067 41.08 80.0933 40.92 81 40.6C81.9067 40.28 82.5733 39.8533 83 39.32C83.4267 38.76 83.64 38.1333 83.64 37.44C83.64 36.5867 83.3333 35.9067 82.72 35.4C82.1067 34.8667 81.3067 34.4533 80.32 34.16C79.36 33.84 78.28 33.5467 77.08 33.28C75.9067 33.0133 74.72 32.7067 73.52 32.36C72.3467 31.9867 71.2667 31.52 70.28 30.96C69.32 30.3733 68.5333 29.6 67.92 28.64C67.3067 27.68 67 26.4533 67 24.96C67 23.44 67.4 22.0533 68.2 20.8C69.0267 19.52 70.2667 18.5067 71.92 17.76C73.6 16.9867 75.72 16.6 78.28 16.6C79.96 16.6 81.6267 16.8133 83.28 17.24C84.9333 17.6667 86.3733 18.28 87.6 19.08L85.96 23.12C84.7067 22.3733 83.4133 21.8267 82.08 21.48C80.7467 21.1067 79.4667 20.92 78.24 20.92C76.8 20.92 75.6267 21.0933 74.72 21.44C73.84 21.7867 73.1867 22.24 72.76 22.8C72.36 23.36 72.16 24 72.16 24.72C72.16 25.5733 72.4533 26.2667 73.04 26.8C73.6533 27.3067 74.44 27.7067 75.4 28C76.3867 28.2933 77.48 28.5867 78.68 28.88C79.88 29.1467 81.0667 29.4533 82.24 29.8C83.44 30.1467 84.52 30.6 85.48 31.16C86.4667 31.72 87.2533 32.48 87.84 33.44C88.4533 34.4 88.76 35.6133 88.76 37.08C88.76 38.5733 88.3467 39.96 87.52 41.24C86.72 42.4933 85.48 43.5067 83.8 44.28C82.12 45.0267 80 45.4 77.44 45.4ZM102.076 45.28C100.263 45.28 98.6629 44.9467 97.2763 44.28C95.8896 43.5867 94.8096 42.5467 94.0363 41.16C93.2629 39.7467 92.8763 37.9733 92.8763 35.84V23.64H97.8763V35.16C97.8763 37.08 98.3029 38.52 99.1563 39.48C100.036 40.4133 101.276 40.88 102.876 40.88C104.05 40.88 105.063 40.64 105.916 40.16C106.796 39.68 107.476 38.96 107.956 38C108.463 37.04 108.716 35.8533 108.716 34.44V23.64H113.716V45H108.956V39.24L109.796 41C109.076 42.3867 108.023 43.4533 106.636 44.2C105.25 44.92 103.73 45.28 102.076 45.28ZM131.703 45.28C129.969 45.28 128.383 44.88 126.943 44.08C125.529 43.28 124.396 42.08 123.543 40.48C122.716 38.8533 122.303 36.8 122.303 34.32C122.303 31.8133 122.703 29.76 123.503 28.16C124.329 26.56 125.449 25.3733 126.863 24.6C128.276 23.8 129.889 23.4 131.703 23.4C133.809 23.4 135.663 23.8533 137.263 24.76C138.889 25.6667 140.169 26.9333 141.103 28.56C142.063 30.1867 142.543 32.1067 142.543 34.32C142.543 36.5333 142.063 38.4667 141.103 40.12C140.169 41.7467 138.889 43.0133 137.263 43.92C135.663 44.8267 133.809 45.28 131.703 45.28ZM119.863 52.76V23.64H124.623V28.68L124.463 34.36L124.863 40.04V52.76H119.863ZM131.143 41C132.343 41 133.409 40.7333 134.343 40.2C135.303 39.6667 136.063 38.8933 136.623 37.88C137.183 36.8667 137.463 35.68 137.463 34.32C137.463 32.9333 137.183 31.7467 136.623 30.76C136.063 29.7467 135.303 28.9733 134.343 28.44C133.409 27.9067 132.343 27.64 131.143 27.64C129.943 27.64 128.863 27.9067 127.903 28.44C126.943 28.9733 126.183 29.7467 125.623 30.76C125.063 31.7467 124.783 32.9333 124.783 34.32C124.783 35.68 125.063 36.8667 125.623 37.88C126.183 38.8933 126.943 39.6667 127.903 40.2C128.863 40.7333 129.943 41 131.143 41ZM156.925 45.28C154.551 45.28 152.471 44.8133 150.685 43.88C148.925 42.92 147.551 41.6133 146.565 39.96C145.605 38.3067 145.125 36.4267 145.125 34.32C145.125 32.1867 145.591 30.3067 146.525 28.68C147.485 27.0267 148.791 25.7333 150.445 24.8C152.125 23.8667 154.031 23.4 156.165 23.4C158.245 23.4 160.098 23.8533 161.725 24.76C163.351 25.6667 164.631 26.9467 165.565 28.6C166.498 30.2533 166.965 32.2 166.965 34.44C166.965 34.6533 166.951 34.8933 166.925 35.16C166.925 35.4267 166.911 35.68 166.885 35.92H149.085V32.6H164.245L162.285 33.64C162.311 32.4133 162.058 31.3333 161.525 30.4C160.991 29.4667 160.258 28.7333 159.325 28.2C158.418 27.6667 157.365 27.4 156.165 27.4C154.938 27.4 153.858 27.6667 152.925 28.2C152.018 28.7333 151.298 29.48 150.765 30.44C150.258 31.3733 150.005 32.48 150.005 33.76V34.56C150.005 35.84 150.298 36.9733 150.885 37.96C151.471 38.9467 152.298 39.7067 153.365 40.24C154.431 40.7733 155.658 41.04 157.045 41.04C158.245 41.04 159.325 40.8533 160.285 40.48C161.245 40.1067 162.098 39.52 162.845 38.72L165.525 41.8C164.565 42.92 163.351 43.7867 161.885 44.4C160.445 44.9867 158.791 45.28 156.925 45.28ZM171.368 45V23.64H176.128V29.52L175.568 27.8C176.208 26.36 177.208 25.2667 178.568 24.52C179.954 23.7733 181.674 23.4 183.728 23.4V28.16C183.514 28.1067 183.314 28.08 183.128 28.08C182.941 28.0533 182.754 28.04 182.568 28.04C180.674 28.04 179.168 28.6 178.048 29.72C176.928 30.8133 176.368 32.4533 176.368 34.64V45H171.368ZM196.417 45.4C194.23 45.4 192.137 45.0933 190.137 44.48C188.137 43.84 186.55 43.0267 185.377 42.04L187.177 38C188.297 38.88 189.683 39.6133 191.337 40.2C192.99 40.7867 194.683 41.08 196.417 41.08C197.883 41.08 199.07 40.92 199.977 40.6C200.883 40.28 201.55 39.8533 201.977 39.32C202.403 38.76 202.617 38.1333 202.617 37.44C202.617 36.5867 202.31 35.9067 201.697 35.4C201.083 34.8667 200.283 34.4533 199.297 34.16C198.337 33.84 197.257 33.5467 196.057 33.28C194.883 33.0133 193.697 32.7067 192.497 32.36C191.323 31.9867 190.243 31.52 189.257 30.96C188.297 30.3733 187.51 29.6 186.897 28.64C186.283 27.68 185.977 26.4533 185.977 24.96C185.977 23.44 186.377 22.0533 187.177 20.8C188.003 19.52 189.243 18.5067 190.897 17.76C192.577 16.9867 194.697 16.6 197.257 16.6C198.937 16.6 200.603 16.8133 202.257 17.24C203.91 17.6667 205.35 18.28 206.577 19.08L204.937 23.12C203.683 22.3733 202.39 21.8267 201.057 21.48C199.723 21.1067 198.443 20.92 197.217 20.92C195.777 20.92 194.603 21.0933 193.697 21.44C192.817 21.7867 192.163 22.24 191.737 22.8C191.337 23.36 191.137 24 191.137 24.72C191.137 25.5733 191.43 26.2667 192.017 26.8C192.63 27.3067 193.417 27.7067 194.377 28C195.363 28.2933 196.457 28.5867 197.657 28.88C198.857 29.1467 200.043 29.4533 201.217 29.8C202.417 30.1467 203.497 30.6 204.457 31.16C205.443 31.72 206.23 32.48 206.817 33.44C207.43 34.4 207.737 35.6133 207.737 37.08C207.737 38.5733 207.323 39.96 206.497 41.24C205.697 42.4933 204.457 43.5067 202.777 44.28C201.097 45.0267 198.977 45.4 196.417 45.4ZM212.013 45V23.64H217.013V45H212.013ZM214.533 20.12C213.599 20.12 212.826 19.8267 212.213 19.24C211.626 18.6533 211.333 17.9467 211.333 17.12C211.333 16.2667 211.626 15.56 212.213 15C212.826 14.4133 213.599 14.12 214.533 14.12C215.466 14.12 216.226 14.4 216.813 14.96C217.426 15.4933 217.733 16.1733 217.733 17C217.733 17.88 217.439 18.6267 216.853 19.24C216.266 19.8267 215.493 20.12 214.533 20.12ZM250.135 23.4C251.842 23.4 253.349 23.7333 254.655 24.4C255.989 25.0667 257.029 26.0933 257.775 27.48C258.522 28.84 258.895 30.6 258.895 32.76V45H253.895V33.4C253.895 31.5067 253.482 30.0933 252.655 29.16C251.829 28.2267 250.642 27.76 249.095 27.76C248.002 27.76 247.029 28 246.175 28.48C245.349 28.96 244.695 29.6667 244.215 30.6C243.762 31.5333 243.535 32.72 243.535 34.16V45H238.535V33.4C238.535 31.5067 238.122 30.0933 237.295 29.16C236.469 28.2267 235.282 27.76 233.735 27.76C232.642 27.76 231.669 28 230.815 28.48C229.989 28.96 229.335 29.6667 228.855 30.6C228.402 31.5333 228.175 32.72 228.175 34.16V45H223.175V23.64H227.935V29.32L227.095 27.64C227.815 26.2533 228.855 25.2 230.215 24.48C231.602 23.76 233.175 23.4 234.935 23.4C236.935 23.4 238.669 23.8933 240.135 24.88C241.629 25.8667 242.615 27.36 243.095 29.36L241.135 28.68C241.829 27.08 242.975 25.8 244.575 24.84C246.175 23.88 248.029 23.4 250.135 23.4ZM276.725 45.28C274.991 45.28 273.405 44.88 271.965 44.08C270.551 43.28 269.418 42.08 268.565 40.48C267.738 38.8533 267.325 36.8 267.325 34.32C267.325 31.8133 267.725 29.76 268.525 28.16C269.351 26.56 270.471 25.3733 271.885 24.6C273.298 23.8 274.911 23.4 276.725 23.4C278.831 23.4 280.685 23.8533 282.285 24.76C283.911 25.6667 285.191 26.9333 286.125 28.56C287.085 30.1867 287.565 32.1067 287.565 34.32C287.565 36.5333 287.085 38.4667 286.125 40.12C285.191 41.7467 283.911 43.0133 282.285 43.92C280.685 44.8267 278.831 45.28 276.725 45.28ZM264.885 52.76V23.64H269.645V28.68L269.485 34.36L269.885 40.04V52.76H264.885ZM276.165 41C277.365 41 278.431 40.7333 279.365 40.2C280.325 39.6667 281.085 38.8933 281.645 37.88C282.205 36.8667 282.485 35.68 282.485 34.32C282.485 32.9333 282.205 31.7467 281.645 30.76C281.085 29.7467 280.325 28.9733 279.365 28.44C278.431 27.9067 277.365 27.64 276.165 27.64C274.965 27.64 273.885 27.9067 272.925 28.44C271.965 28.9733 271.205 29.7467 270.645 30.76C270.085 31.7467 269.805 32.9333 269.805 34.32C269.805 35.68 270.085 36.8667 270.645 37.88C271.205 38.8933 271.965 39.6667 272.925 40.2C273.885 40.7333 274.965 41 276.165 41ZM291.907 45V15.32H296.907V45H291.907ZM313.109 45.28C310.736 45.28 308.656 44.8133 306.869 43.88C305.109 42.92 303.736 41.6133 302.749 39.96C301.789 38.3067 301.309 36.4267 301.309 34.32C301.309 32.1867 301.776 30.3067 302.709 28.68C303.669 27.0267 304.976 25.7333 306.629 24.8C308.309 23.8667 310.216 23.4 312.349 23.4C314.429 23.4 316.282 23.8533 317.909 24.76C319.536 25.6667 320.816 26.9467 321.749 28.6C322.682 30.2533 323.149 32.2 323.149 34.44C323.149 34.6533 323.136 34.8933 323.109 35.16C323.109 35.4267 323.096 35.68 323.069 35.92H305.269V32.6H320.429L318.469 33.64C318.496 32.4133 318.242 31.3333 317.709 30.4C317.176 29.4667 316.442 28.7333 315.509 28.2C314.602 27.6667 313.549 27.4 312.349 27.4C311.122 27.4 310.042 27.6667 309.109 28.2C308.202 28.7333 307.482 29.48 306.949 30.44C306.442 31.3733 306.189 32.48 306.189 33.76V34.56C306.189 35.84 306.482 36.9733 307.069 37.96C307.656 38.9467 308.482 39.7067 309.549 40.24C310.616 40.7733 311.842 41.04 313.229 41.04C314.429 41.04 315.509 40.8533 316.469 40.48C317.429 40.1067 318.282 39.52 319.029 38.72L321.709 41.8C320.749 42.92 319.536 43.7867 318.069 44.4C316.629 44.9867 314.976 45.28 313.109 45.28ZM328.032 45V17H340.272C343.312 17 345.979 17.5867 348.272 18.76C350.565 19.9333 352.352 21.56 353.632 23.64C354.912 25.72 355.552 28.1733 355.552 31C355.552 33.8 354.912 36.2533 353.632 38.36C352.352 40.44 350.565 42.0667 348.272 43.24C345.979 44.4133 343.312 45 340.272 45H328.032ZM333.232 40.6H340.032C342.139 40.6 343.952 40.2 345.472 39.4C347.019 38.6 348.205 37.48 349.032 36.04C349.885 34.6 350.312 32.92 350.312 31C350.312 29.0533 349.885 27.3733 349.032 25.96C348.205 24.52 347.019 23.4 345.472 22.6C343.952 21.8 342.139 21.4 340.032 21.4H333.232V40.6ZM370.239 45.28C367.865 45.28 365.785 44.8133 363.999 43.88C362.239 42.92 360.865 41.6133 359.879 39.96C358.919 38.3067 358.439 36.4267 358.439 34.32C358.439 32.1867 358.905 30.3067 359.839 28.68C360.799 27.0267 362.105 25.7333 363.759 24.8C365.439 23.8667 367.345 23.4 369.479 23.4C371.559 23.4 373.412 23.8533 375.039 24.76C376.665 25.6667 377.945 26.9467 378.879 28.6C379.812 30.2533 380.279 32.2 380.279 34.44C380.279 34.6533 380.265 34.8933 380.239 35.16C380.239 35.4267 380.225 35.68 380.199 35.92H362.399V32.6H377.559L375.599 33.64C375.625 32.4133 375.372 31.3333 374.839 30.4C374.305 29.4667 373.572 28.7333 372.639 28.2C371.732 27.6667 370.679 27.4 369.479 27.4C368.252 27.4 367.172 27.6667 366.239 28.2C365.332 28.7333 364.612 29.48 364.079 30.44C363.572 31.3733 363.319 32.48 363.319 33.76V34.56C363.319 35.84 363.612 36.9733 364.199 37.96C364.785 38.9467 365.612 39.7067 366.679 40.24C367.745 40.7733 368.972 41.04 370.359 41.04C371.559 41.04 372.639 40.8533 373.599 40.48C374.559 40.1067 375.412 39.52 376.159 38.72L378.839 41.8C377.879 42.92 376.665 43.7867 375.199 44.4C373.759 44.9867 372.105 45.28 370.239 45.28ZM389.971 45L380.811 23.64H386.011L393.891 42.48H391.331L399.491 23.64H404.291L395.131 45H389.971Z" fill="#198754"/>
<path d="M45 11.8992L18.416 21.6387L45 31.2983V41.2773L7 26.8277V16.4496L45 2V11.8992Z" fill="#198754"/>
<path d="M45 32.4164V42.7945L7 57.2441V47.2651L33.584 37.6055L7 27.866V17.9668L45 32.4164Z" fill="#198754"/>
</svg>
