<svg xmlns="http://www.w3.org/2000/svg" width="48" height="48" viewBox="0 0 48 48" fill="none"><path d="M6 29.1992H42M16.6992 35.5977H31.2992M13.7188 29.2017V28.7817C13.7188 23.7817 18.2987 19.7617 23.9987 19.7617C29.6987 19.7617 34.2788 23.7817 34.2788 28.7817V29.2017M8.85938 29.1992H39.1394V41.9792H8.85938V29.1992ZM23.9987 15.52C26.6187 15.52 28.7588 13.38 28.7588 10.76C28.7588 8.14 26.6187 6 23.9987 6C21.3787 6 19.2387 8.14 19.2387 10.76C19.2387 13.38 21.3787 15.52 23.9987 15.52Z" stroke="url(#paint0_linear_2660_6067)" stroke-width="3" stroke-linecap="round" stroke-linejoin="round"></path> <defs><linearGradient id="paint0_linear_2660_6067" x1="24" y1="6" x2="24" y2="41.9792" gradientUnits="userSpaceOnUse"><stop stop-color="#14A800"></stop> <stop offset="1" stop-color="#6ED06E"></stop></linearGradient></defs></svg>