<svg xmlns="http://www.w3.org/2000/svg" width="49" height="48" viewBox="0 0 49 48" fill="none"><path d="M42.366 19.086L42.4716 19.7198L42.5187 20.3799L42.5112 21.0266L42.4301 21.69L42.2849 22.3552L42.0756 23.0221L41.8144 23.6878L41.4863 24.343L41.1036 24.9849L40.654 25.6162L40.1375 26.2369L39.5786 26.8415L38.9623 27.4205L38.3035 27.9833L37.5846 28.5082L36.8233 29.017L36.0168 29.4974L35.1623 29.937L34.2778 30.3578L33.3547 30.7228L32.4016 31.0689L31.425 31.3687L30.4126 31.6251L29.3797 31.8474L28.3356 32.0207L27.2831 32.1572L26.2071 32.2475L25.1323 32.2858L24.0519 32.2997L22.982 32.2467L21.9066 32.1691L20.8445 32.0369L19.7985 31.8623L18.7715 31.6576L17.7578 31.3983L16.7754 31.106L15.8214 30.7686L14.8863 30.4011L13.9946 29.9978L13.1437 29.5467L12.3267 29.0748L11.5683 28.5768L10.8411 28.0458L10.1724 27.4886L9.53772 26.9107L8.9766 26.3161L8.46175 25.6981L8.00822 25.0661L7.61601 24.4201L7.27285 23.763L6.9938 23.1042L6.78834 22.4286L6.63752 21.7663L6.55081 21.1024L6.51874 20.4518L6.56304 19.7967L6.66478 19.1672L6.83063 18.5361L7.06618 17.9277L7.35638 17.3327L7.70679 16.7756L8.11185 16.2319L8.57434 15.7138L9.09706 15.2335L9.66495 14.7817L10.2903 14.3555L10.9664 13.9822L11.6876 13.6374L12.4446 13.336L13.2467 13.063L14.0873 12.8457L14.9513 12.6748L15.8634 12.5445L16.7837 12.4509L17.7426 12.4132L18.7127 12.4244L19.7062 12.482L20.7108 12.5886L21.7239 12.7319L22.7481 12.9244L23.7712 13.1687L24.7905 13.4525L25.7963 13.791L26.8106 14.1663L27.7964 14.5868L28.7662 15.0496L29.7292 15.5398L30.6515 16.0779L31.5549 16.6462L32.4299 17.2596L33.2709 17.8937L34.0807 18.5606L34.8442 19.251L35.5738 19.9621L36.2542 20.6843L36.879 21.445L37.4669 22.2141L38.003 22.9821L38.4929 23.7735L38.9186 24.5666L39.2925 25.3587L39.6145 26.1496L39.8696 26.93L40.0729 27.7093L40.2121 28.4903L40.3061 29.2429L40.3332 29.9849L40.3028 30.7013L40.2151 31.3921L40.0699 32.0573L39.8672 32.6968L39.6071 33.3107L39.2991 33.884L38.9308 34.4193L38.5146 34.914L38.0504 35.368L37.5505 35.7786L36.9904 36.1512L36.3918 36.4682L35.7547 36.7294L35.0819 36.9471L34.3734 37.1214L33.6358 37.2248L32.8777 37.2943L32.0782 37.2958L31.2676 37.2482L30.4307 37.1421L29.5827 36.9869L28.7207 36.7704L27.8476 36.5049L26.9755 36.1875L26.0922 35.8211L25.2223 35.4L24.3535 34.9271L23.4858 34.4023L22.6343 33.8351L21.7989 33.2256L20.9891 32.5586L20.186 31.8644L19.4141 31.1372L18.6706 30.3648L17.9583 29.5595L17.2677 28.7364L16.6178 27.8653L16.017 26.9831L15.4379 26.083L14.9051 25.1595L14.4213 24.2247L13.9743 23.2817L13.5764 22.3274L13.2303 21.3742L12.9211 20.4127L12.6787 19.4617L12.4759 18.5146L12.3155 17.5836L12.2219 16.6632L12.1708 15.759L12.1648 14.8832L12.2135 14.0207L12.3224 13.1961L12.4642 12.4027L12.6634 11.6349L12.9134 10.9201L13.1963 10.2365L13.5272 9.59355L13.906 8.99128L14.3234 8.44474L14.7792 7.95393L15.2707 7.5066L15.7884 7.11778L16.3447 6.78471L16.9271 6.51015L17.5358 6.29413L18.1708 6.13663L18.8319 6.03766L19.507 6L20.1961 6.02366L20.8869 6.11144L21.6039 6.25774L22.3103 6.47094L23.0308 6.74547L23.7501 7.07184L24.4588 7.46512L25.1665 7.91024L25.8731 8.40722L26.5568 8.97388L27.2244 9.58293L27.8759 10.2344L28.514 10.9404L29.1265 11.7039L29.7077 12.5003L30.2606 13.3419L30.7823 14.2164L31.2727 15.1238L31.732 16.0641L32.1477 17.0401L32.539 18.0217L32.8745 19.0417L33.1855 20.0674L33.4379 21.1193L33.6659 22.1768L33.8297 23.2359L33.969 24.3007L34.0414 25.3549L34.0893 26.4147L34.0825 27.4611L34.0333 28.4914L33.9418 29.5055L33.8079 30.5035L33.6288 31.4731L33.4073 32.4265L33.1379 33.3393L32.8328 34.2086L32.4948 35.0466L32.1238 35.8535L31.7022 36.6074L31.257 37.3151L30.7885 37.9765L30.2814 38.5822L29.7509 39.1416L29.2065 39.6397L28.6235 40.082L28.0389 40.4603L27.428 40.78L26.8032 41.0384L26.1644 41.2355L25.5238 41.3685L24.8816 41.4373L24.2377 41.4421L23.5921 41.3827L22.9571 41.2564L22.3203 41.0661L21.6969 40.821L21.0841 40.5091L20.4818 40.1303L19.9052 39.694L19.3541 39.2003L18.8192 38.6643L18.3072 38.0585L17.8358 37.4047L17.3806 36.7086L16.9632 35.9523L16.5893 35.1603L16.2439 34.323L15.9296 33.4529L15.6711 32.5443L15.4438 31.6028L15.2504 30.6406L15.1128 29.64L15.012 28.631L14.9575 27.5985L14.952 26.5549L14.9833 25.5028L15.0637 24.4397L15.1959 23.3775L15.3554 22.3221L15.564 21.2555L15.83 20.2146L16.1233 19.1803L16.4591 18.1621L16.8399 17.1724L17.2632 16.1988L17.7043 15.247L18.1934 14.3358L18.7154 13.4558L19.2703 12.607L19.8486 11.8045L20.4504 11.0483L21.0878 10.3355L21.7364 9.67181L22.4085 9.05436L23.0918 8.48596L23.789 7.97888L24.4973 7.52085L25.2074 7.12694L25.9287 6.78208L26.6421 6.51638L27.3517 6.29028L28.0658 6.14055L28.7666 6.04546L29.4539 6.00501L30.1308 6.03147L30.797 6.12483L31.4254 6.27841L32.0404 6.48664L32.6298 6.75231L33.1936 7.0754L33.7195 7.45873L34.2198 7.89948L34.6794 8.38821L35.0983 8.92489L35.4765 9.50954L35.8141 10.1422L36.111 10.8227L36.3522 11.5418L36.5649 12.306L36.7191 13.0965L36.8271 13.9104L36.8793 14.7628L36.8853 15.6386L36.845 16.5379L36.7462 17.4634L36.5955 18.3878L36.3986 19.3356L36.1649 20.2918L35.8642 21.2375L35.5146 22.1943L35.1253 23.1473L34.6842 24.0991L34.2007 25.0348L33.6776 25.9666L33.1094 26.87L32.511 27.7545L31.8552 28.6134L31.1816 29.4505L30.475 30.2564L29.7233 31.0339L28.9632 31.7746L28.1674 32.4718L27.351 33.135L26.5111 33.752L25.6601 34.3199L24.8006 34.8511L23.93 35.3331L23.0605 35.7633L22.1798 36.1445L21.3097 36.4588L20.4312 36.7363L19.5783 36.9563L18.7266 37.1245L17.8853 37.2258L17.0725 37.2819L16.2731 37.2834L15.502 37.2397L14.7538 37.1263L14.0463 36.9649L13.3671 36.7584L12.7259 36.4916L12.1253 36.1769L11.5682 35.8265L11.049 35.4158L10.5733 34.9695L10.1505 34.4724L9.78617 33.9491L9.46257 33.3778L9.20975 32.7775L9.00041 32.1414L8.84958 31.4792L8.74223 30.7813L8.70846 30.0666L8.73321 29.3256L8.80702 28.5735L8.94215 27.8075L9.1386 27.0274L9.38689 26.2485L9.70877 25.4528L10.0702 24.661L10.4958 23.8675L10.9638 23.0901L11.4958 22.311L12.0675 21.5359L12.6965 20.7863L13.3803 20.0501L14.0941 19.3328L14.8531 18.644L15.6545 17.9713L16.4916 17.342L17.3588 16.7317L18.2589 16.1526L19.1947 15.617L20.1361 15.1059L21.116 14.6506L22.1014 14.2197L23.1103 13.8352L24.1181 13.5024L25.1343 13.2065L26.1617 12.9596L27.1852 12.7523L28.1953 12.5997L29.2043 12.4989L30.1944 12.4282L31.1739 12.4244L32.1345 12.4507L33.0695 12.5345L33.976 12.6634L34.8514 12.8253L35.6888 13.0473L36.4951 13.3023L37.2607 13.6052L37.9951 13.9411L38.6737 14.3154L39.2966 14.7283L39.8761 15.1768L40.3998 15.6638L40.8772 16.1743L41.2962 16.7109L41.6566 17.2739L41.9434 17.8535L42.1867 18.4689L42.366 19.086Z" stroke="url(#paint0_linear_2660_5981)" stroke-width="3" stroke-linejoin="round"></path> <defs><linearGradient id="paint0_linear_2660_5981" x1="24.5187" y1="6" x2="24.5187" y2="41.4421" gradientUnits="userSpaceOnUse"><stop stop-color="#14A800"></stop> <stop offset="1" stop-color="#6ED06E"></stop></linearGradient></defs></svg>