<svg
        xmlns="http://www.w3.org/2000/svg"
        width="49"
        height="48"
        viewBox="0 0 49 48"
        fill="none">
        <path
          fill-rule="evenodd"
          clip-rule="evenodd"
          d="M18.0799 13.7594C18.3199 13.9194 18.5999 14.0194 18.8999 14.0194C19.2999 14.0194 19.6799 13.8594 19.9599 13.5794C20.2399 13.2994 20.3999 12.9194 20.3999 12.5194C20.3999 12.2394 20.3199 11.9394 20.1399 11.6994C19.9799 11.4394 19.7399 11.2594 19.4599 11.1394C19.1799 11.0394 18.8799 10.9994 18.5999 11.0594C18.3199 11.1194 18.0399 11.2594 17.8399 11.4594C17.6399 11.6594 17.4999 11.9394 17.4399 12.2194C17.3799 12.4994 17.4199 12.7994 17.5199 13.0794C17.6199 13.3594 17.8199 13.5794 18.0799 13.7594Z"
          fill="#181818"></path>{" "}
        <path
          fill-rule="evenodd"
          clip-rule="evenodd"
          d="M12.0799 21.7601C12.3199 21.9201 12.5999 22.0201 12.8999 22.0201C13.2999 22.0201 13.6799 21.8601 13.9599 21.5801C14.2399 21.3001 14.3999 20.9201 14.3999 20.5201C14.3999 20.2401 14.3199 19.9401 14.1399 19.7001C13.9799 19.4401 13.7399 19.2601 13.4599 19.1401C13.1799 19.0201 12.8799 19.0001 12.5999 19.0601C12.3199 19.1201 12.0399 19.2601 11.8399 19.4601C11.6399 19.6601 11.4999 19.9401 11.4399 20.2201C11.3799 20.5001 11.4199 20.8001 11.5199 21.0801C11.6199 21.3601 11.8199 21.5801 12.0799 21.7601Z"
          fill="#181818"></path>{" "}
        <path
          fill-rule="evenodd"
          clip-rule="evenodd"
          d="M28.9006 13.9999C28.6006 13.9999 28.3206 13.9199 28.0806 13.7399C27.8206 13.5799 27.6406 13.3399 27.5206 13.0599C27.4006 12.7799 27.3806 12.4799 27.4406 12.1999C27.5006 11.9199 27.6406 11.6399 27.8406 11.4399C28.0406 11.2399 28.3206 11.0999 28.6006 11.0399C28.8806 10.9799 29.1806 11.0199 29.4606 11.1199C29.7406 11.2199 29.9606 11.4199 30.1406 11.6799C30.3006 11.9399 30.4006 12.2199 30.4006 12.4999C30.4006 12.8999 30.2406 13.2799 29.9606 13.5599C29.6806 13.8399 29.3006 13.9999 28.9006 13.9999Z"
          fill="#181818"></path>{" "}
        <path
          d="M34.9 22C35.7285 22 36.4 21.3284 36.4 20.5C36.4 19.6716 35.7285 19 34.9 19C34.0716 19 33.4 19.6716 33.4 20.5C33.4 21.3284 34.0716 22 34.9 22Z"
          fill="#181818"></path>{" "}
        <path
          d="M11.18 10.78L12.2407 11.8407L12.2438 11.8375L11.18 10.78ZM11.18 36.22L12.2407 35.1593L12.2375 35.1562L11.18 36.22ZM26.64 39.72L25.2693 39.1108C25.2629 39.1251 25.2568 39.1395 25.2509 39.1541L26.64 39.72ZM26.12 36.48L27.2553 35.4996C27.2477 35.4908 27.2401 35.4822 27.2323 35.4736L26.12 36.48ZM25.6 33.26L24.2381 32.6314C24.2313 32.646 24.2248 32.6607 24.2186 32.6755L25.6 33.26ZM26.72 31.98L27.4918 33.2662C27.5122 33.254 27.5323 33.2413 27.5521 33.2281L26.72 31.98ZM28.36 31.52L28.3083 33.0191C28.3256 33.0197 28.3428 33.02 28.36 33.02V31.52ZM38.98 28.6L40.035 29.6663L40.0407 29.6607L38.98 28.6ZM41.9 21.52H43.4H41.9ZM18.0799 13.7594L17.2261 14.9927L17.2369 15.0002L17.2479 15.0075L18.0799 13.7594ZM20.1399 11.6994L18.8624 12.4856L18.8986 12.5443L18.9399 12.5994L20.1399 11.6994ZM19.4599 11.1394L20.0508 9.76072L20.0082 9.74244L19.9644 9.72683L19.4599 11.1394ZM12.0799 21.7601L11.2261 22.9934L11.2369 23.0009L11.2479 23.0082L12.0799 21.7601ZM14.1399 19.7001L12.8624 20.4863L12.8986 20.545L12.9399 20.6001L14.1399 19.7001ZM28.0806 13.7399L28.9806 12.5399L28.9255 12.4985L28.8667 12.4624L28.0806 13.7399ZM30.1406 11.6799L31.4181 10.8938L31.3969 10.8593L31.3739 10.8261L30.1406 11.6799ZM23.9 4C18.7224 4 13.759 6.05805 10.1162 9.72249L12.2438 11.8375C15.3211 8.74195 19.5177 7 23.9 7V4ZM10.1194 9.71934C6.45913 13.3796 4.40002 18.3407 4.40002 23.5H7.40002C7.40002 19.1393 9.14092 14.9404 12.2407 11.8407L10.1194 9.71934ZM4.40002 23.5C4.40002 28.6568 6.45745 33.6404 10.1225 37.2838L12.2375 35.1562C9.1426 32.0796 7.40002 27.8632 7.40002 23.5H4.40002ZM10.1194 37.2807C13.7796 40.9409 18.7407 43 23.9 43V40C19.5394 40 15.3404 38.2591 12.2407 35.1593L10.1194 37.2807ZM23.9 43C24.7477 43 25.623 42.7674 26.3721 42.2681L24.708 39.7719C24.497 39.9126 24.2123 40 23.9 40V43ZM26.3721 42.2681C27.0535 41.8138 27.6758 41.1533 28.0292 40.2859L25.2509 39.1541C25.1642 39.3667 24.9866 39.5862 24.708 39.7719L26.3721 42.2681ZM28.0107 40.3292C28.3651 39.5318 28.4911 38.6519 28.3382 37.7651L25.3818 38.2749C25.4289 38.5481 25.3949 38.8282 25.2693 39.1108L28.0107 40.3292ZM28.3382 37.7651C28.1883 36.8958 27.799 36.1292 27.2553 35.4996L24.9848 37.4604C25.201 37.7108 25.3317 37.9842 25.3818 38.2749L28.3382 37.7651ZM27.2323 35.4736C27.0499 35.272 26.9117 34.9953 26.8582 34.6851L23.9018 35.1949C24.0484 36.0447 24.4302 36.848 25.0077 37.4864L27.2323 35.4736ZM26.8582 34.6851C26.8158 34.4393 26.8515 34.1517 26.9815 33.8445L24.2186 32.6755C23.9085 33.4083 23.7442 34.2807 23.9018 35.1949L26.8582 34.6851ZM26.962 33.8886C27.0938 33.603 27.2847 33.3905 27.4918 33.2662L25.9483 30.6938C25.1554 31.1695 24.5863 31.877 24.2381 32.6314L26.962 33.8886ZM27.5521 33.2281C27.7633 33.0872 28.0326 33.0096 28.3083 33.0191L28.4117 30.0209C27.5275 29.9904 26.6367 30.2327 25.888 30.7319L27.5521 33.2281ZM28.36 33.02H31.9V30.02H28.36V33.02ZM31.9 33.02C34.9599 33.02 37.8776 31.8007 40.035 29.6663L37.9251 27.5337C36.3224 29.1193 34.1601 30.02 31.9 30.02V33.02ZM40.0407 29.6607C42.2053 27.496 43.4 24.5731 43.4 21.52H40.4C40.4 23.7869 39.5147 25.944 37.9194 27.5393L40.0407 29.6607ZM43.4 21.52C43.4 11.6743 34.5619 4 23.9 4V7C33.2382 7 40.4 13.6457 40.4 21.52H43.4ZM17.2479 15.0075C17.6941 15.305 18.2589 15.5194 18.8999 15.5194V12.5194C18.9085 12.5194 18.9162 12.5202 18.9225 12.5212C18.9287 12.5222 18.9326 12.5234 18.934 12.5238C18.9365 12.5247 18.9285 12.5224 18.912 12.5114L17.2479 15.0075ZM18.8999 15.5194C19.7023 15.5194 20.4625 15.1982 21.0206 14.6401L18.8993 12.5188L18.8999 12.5194V15.5194ZM21.0206 14.6401C21.5787 14.082 21.8999 13.3218 21.8999 12.5194H18.8999L18.8993 12.5188L21.0206 14.6401ZM21.8999 12.5194C21.8999 11.9742 21.7475 11.3428 21.3399 10.7994L18.9399 12.5994C18.9141 12.5649 18.9048 12.539 18.9021 12.5302C18.8996 12.522 18.8999 12.5197 18.8999 12.5194H21.8999ZM21.4174 10.9133C21.0592 10.3312 20.5449 9.97249 20.0508 9.76072L18.8691 12.5182C18.903 12.5327 18.9114 12.541 18.9048 12.5358C18.9013 12.533 18.8947 12.5272 18.8865 12.518C18.8783 12.5088 18.8699 12.4978 18.8624 12.4856L21.4174 10.9133ZM19.9644 9.72683C19.4992 9.56069 18.9088 9.4592 18.2856 9.59274L18.9142 12.5261C18.8801 12.5335 18.8652 12.5304 18.8756 12.5315C18.8864 12.5326 18.9138 12.5372 18.9554 12.5521L19.9644 9.72683ZM18.2856 9.59274C17.7636 9.7046 17.2113 9.96675 16.7793 10.3988L18.9006 12.5201C18.889 12.5317 18.8811 12.5376 18.8786 12.5394C18.876 12.5412 18.8768 12.5404 18.8812 12.5382C18.8855 12.5359 18.8913 12.5333 18.8981 12.5309C18.905 12.5284 18.9106 12.5269 18.9142 12.5261L18.2856 9.59274ZM16.7793 10.3988C16.3472 10.8308 16.0851 11.3831 15.9732 11.9051L18.9066 12.5337C18.9074 12.5301 18.9089 12.5245 18.9114 12.5176C18.9138 12.5108 18.9164 12.505 18.9187 12.5007C18.9209 12.4963 18.9217 12.4955 18.9199 12.4981C18.9181 12.5006 18.9122 12.5085 18.9006 12.5201L16.7793 10.3988ZM15.9732 11.9051C15.8397 12.5283 15.9412 13.1188 16.1073 13.5839L18.9325 12.5749C18.9177 12.5333 18.9131 12.506 18.912 12.4951C18.9109 12.4847 18.9139 12.4996 18.9066 12.5337L15.9732 11.9051ZM16.1073 13.5839C16.3437 14.2457 16.7956 14.6947 17.2261 14.9927L18.9337 12.5262C18.8893 12.4954 18.8793 12.4812 18.886 12.4892C18.8898 12.4937 18.8975 12.5036 18.9066 12.5191C18.9159 12.5348 18.925 12.5537 18.9325 12.5749L16.1073 13.5839ZM11.2479 23.0082C11.6941 23.3057 12.2589 23.5201 12.8999 23.5201V20.5201C12.9085 20.5201 12.9162 20.5208 12.9225 20.5219C12.9287 20.5229 12.9326 20.5241 12.934 20.5245C12.9365 20.5253 12.9285 20.5231 12.912 20.512L11.2479 23.0082ZM12.8999 23.5201C13.7023 23.5201 14.4625 23.1989 15.0206 22.6408L12.8993 20.5194L12.8999 20.5201V23.5201ZM15.0206 22.6408C15.5787 22.0827 15.8999 21.3224 15.8999 20.5201H12.8999L12.8993 20.5194L15.0206 22.6408ZM15.8999 20.5201C15.8999 19.9748 15.7475 19.3435 15.3399 18.8001L12.9399 20.6001C12.9141 20.5656 12.9048 20.5397 12.9021 20.5308C12.8996 20.5226 12.8999 20.5203 12.8999 20.5201H15.8999ZM15.4174 18.914C15.0592 18.3318 14.5449 17.9732 14.0508 17.7614L12.8691 20.5188C12.903 20.5334 12.9114 20.5417 12.9048 20.5364C12.9013 20.5336 12.8947 20.5278 12.8865 20.5187C12.8783 20.5094 12.8699 20.4984 12.8624 20.4863L15.4174 18.914ZM14.0508 17.7614C13.4648 17.5102 12.8464 17.4732 12.2856 17.5934L12.9142 20.5268C12.9138 20.5269 12.9095 20.5278 12.9011 20.5271C12.892 20.5263 12.8806 20.5238 12.8691 20.5188L14.0508 17.7614ZM12.2856 17.5934C11.7636 17.7053 11.2113 17.9674 10.7793 18.3994L12.9006 20.5208C12.889 20.5324 12.8811 20.5383 12.8786 20.5401C12.876 20.5419 12.8768 20.5411 12.8812 20.5389C12.8855 20.5366 12.8913 20.534 12.8981 20.5315C12.905 20.5291 12.9106 20.5276 12.9142 20.5268L12.2856 17.5934ZM10.7793 18.3994C10.3472 18.8315 10.0851 19.3838 9.97323 19.9058L12.9066 20.5344C12.9074 20.5308 12.9089 20.5251 12.9114 20.5183C12.9138 20.5115 12.9164 20.5056 12.9187 20.5013C12.9209 20.497 12.9217 20.4962 12.9199 20.4988C12.9181 20.5013 12.9122 20.5092 12.9006 20.5208L10.7793 18.3994ZM9.97323 19.9058C9.83969 20.529 9.94118 21.1194 10.1073 21.5846L12.9325 20.5756C12.9177 20.5339 12.9131 20.5066 12.912 20.4958C12.9109 20.4854 12.9139 20.5003 12.9066 20.5344L9.97323 19.9058ZM10.1073 21.5846C10.3437 22.2464 10.7956 22.6953 11.2261 22.9934L12.9337 20.5268C12.8893 20.496 12.8793 20.4819 12.886 20.4898C12.8898 20.4943 12.8975 20.5042 12.9066 20.5198C12.9159 20.5355 12.925 20.5544 12.9325 20.5756L10.1073 21.5846ZM28.9006 12.4999C28.8842 12.4999 28.8901 12.4978 28.9111 12.5043C28.9338 12.5113 28.9592 12.5239 28.9806 12.5399L27.1806 14.9399C27.7161 15.3415 28.3239 15.4999 28.9006 15.4999V12.4999ZM28.8667 12.4624C28.8789 12.4699 28.8899 12.4782 28.8992 12.4865C28.9083 12.4947 28.9141 12.5013 28.9169 12.5048C28.9222 12.5113 28.9138 12.5029 28.8993 12.469L26.1419 13.6508C26.3536 14.1449 26.7123 14.6592 27.2945 15.0174L28.8667 12.4624ZM28.8993 12.469C28.9042 12.4805 28.9068 12.492 28.9076 12.5011C28.9083 12.5095 28.9074 12.5138 28.9073 12.5142L25.9739 11.8856C25.8537 12.4464 25.8907 13.0648 26.1419 13.6508L28.8993 12.469ZM28.9073 12.5142C28.9081 12.5106 28.9096 12.5049 28.912 12.4981C28.9145 12.4913 28.9171 12.4854 28.9193 12.4811C28.9216 12.4768 28.9224 12.476 28.9206 12.4786C28.9188 12.4811 28.9128 12.489 28.9013 12.5006L26.7799 10.3792C26.3479 10.8113 26.0858 11.3636 25.9739 11.8856L28.9073 12.5142ZM28.9013 12.5006C28.8897 12.5122 28.8818 12.5181 28.8793 12.5199C28.8767 12.5217 28.8775 12.5209 28.8818 12.5187C28.8861 12.5164 28.892 12.5138 28.8988 12.5113C28.9056 12.5089 28.9113 12.5074 28.9149 12.5066L28.2863 9.57321C27.7643 9.68507 27.212 9.94722 26.7799 10.3792L28.9013 12.5006ZM28.9149 12.5066C28.8808 12.5139 28.8659 12.5109 28.8762 12.5119C28.8871 12.5131 28.9144 12.5176 28.9561 12.5325L29.9651 9.7073C29.4999 9.54116 28.9095 9.43967 28.2863 9.57321L28.9149 12.5066ZM28.9561 12.5325C28.9349 12.525 28.916 12.5158 28.9003 12.5066C28.8847 12.4975 28.8748 12.4897 28.8703 12.486C28.8624 12.4792 28.8765 12.4893 28.9073 12.5337L31.3739 10.8261C31.0758 10.3955 30.6268 9.94363 29.9651 9.7073L28.9561 12.5325ZM28.8631 12.4661C28.8912 12.5117 28.9021 12.54 28.905 12.549C28.9076 12.557 28.9006 12.5392 28.9006 12.4999H31.9006C31.9006 11.8643 31.6764 11.3135 31.4181 10.8938L28.8631 12.4661ZM28.9006 12.4999L28.8999 12.4992L31.0213 14.6206C31.5794 14.0625 31.9006 13.3023 31.9006 12.4999H28.9006ZM28.8999 12.4992L28.9006 12.4999V15.4999C29.7029 15.4999 30.4632 15.1787 31.0213 14.6206L28.8999 12.4992ZM34.9 20.5V23.5C36.5569 23.5 37.9 22.1569 37.9 20.5H34.9ZM34.9 20.5H31.9C31.9 22.1569 33.2432 23.5 34.9 23.5V20.5ZM34.9 20.5V17.5C33.2432 17.5 31.9 18.8431 31.9 20.5H34.9ZM34.9 20.5H37.9C37.9 18.8431 36.5569 17.5 34.9 17.5V20.5Z"
          fill="url(#paint0_linear_2660_7131)"></path>{" "}
        <defs>
          <linearGradient
            id="paint0_linear_2660_7131"
            x1="23.9"
            y1="5.5"
            x2="23.9"
            y2="41.5"
            gradientUnits="userSpaceOnUse">
            <stop stop-color="#14A800"></stop>{" "}
            <stop offset="1" stop-color="#6ED06E"></stop>
          </linearGradient>
        </defs>
      </svg>