<svg xmlns="http://www.w3.org/2000/svg" width="49" height="48" viewBox="0 0 49 48" fill="none"><path d="M30.0804 11.0977L37.5004 18.5177M22.9184 18.2784L19.5184 14.8784C19.944 13.6944 20.0244 12.4139 19.7504 11.186C19.4764 9.95803 18.8591 8.83322 17.9705 7.94253C17.0819 7.05185 15.9586 6.43195 14.7313 6.15503C13.504 5.8781 12.2233 5.95556 11.0384 6.37838L14.2784 9.63838L10.2784 13.6384L6.97835 10.4384C6.55554 11.6233 6.47808 12.904 6.755 14.1313C7.03192 15.3586 7.65182 16.482 8.54251 17.3706C9.43319 18.2591 10.558 18.8764 11.7859 19.1504C13.0139 19.4245 14.2944 19.344 15.4784 18.9184L18.8784 22.3184M26.2797 29.7188L29.6797 33.1187C29.2541 34.3027 29.1736 35.5832 29.4476 36.8112C29.7216 38.0391 30.3389 39.1639 31.2275 40.0546C32.1161 40.9453 33.2394 41.5652 34.4667 41.8421C35.694 42.119 36.9747 42.0416 38.1597 41.6188L34.9197 38.3587L38.9197 34.3588L42.1797 37.5987C42.6025 36.4138 42.6799 35.1331 42.403 33.9058C42.1261 32.6785 41.5062 31.5552 40.6155 30.6666C39.7248 29.778 38.6 29.1607 37.3721 28.8867C36.1441 28.6127 34.8636 28.6931 33.6797 29.1188L30.2797 25.7188M23.0191 18.1784L33.6591 7.53842C34.1428 7.04862 34.719 6.65972 35.3541 6.39429C35.9892 6.12886 36.6708 5.99219 37.3591 5.99219C38.0475 5.99219 38.729 6.12886 39.3642 6.39429C39.9993 6.65972 40.5755 7.04862 41.0591 7.53842C41.549 8.02211 41.9378 8.59823 42.2033 9.23338C42.4687 9.86852 42.6054 10.55 42.6054 11.2384C42.6054 11.9268 42.4687 12.6083 42.2033 13.2435C41.9378 13.8786 41.549 14.4547 41.0591 14.9384L16.2591 39.7384C15.5324 40.4789 14.5978 40.9811 13.5791 41.1784L9.73915 41.9984C9.30576 42.1036 8.85259 42.0956 8.4232 41.9751C7.99381 41.8546 7.60263 41.6256 7.28728 41.3103C6.97192 40.9949 6.74299 40.6038 6.62248 40.1744C6.50197 39.745 6.49393 39.2918 6.59915 38.8584L7.35915 35.0184C7.55652 33.9998 8.05869 33.0652 8.79915 32.3384L23.0191 18.1784Z" stroke="url(#paint0_linear_2660_5415)" stroke-width="3" stroke-linecap="round" stroke-linejoin="round"></path> <defs><linearGradient id="paint0_linear_2660_5415" x1="24.5656" y1="5.99219" x2="24.5656" y2="42.0718" gradientUnits="userSpaceOnUse"><stop stop-color="#14A800"></stop> <stop offset="1" stop-color="#6ED06E"></stop></linearGradient></defs></svg>