<svg xmlns="http://www.w3.org/2000/svg" width="49" height="48" viewBox="0 0 49 48" fill="none"><path d="M6.19995 38.8715V38.3107C6.19995 31.5809 11.4663 26.1597 18.0038 26.1597C24.5413 26.1597 29.8076 31.5809 29.8076 38.3107V38.8715M31.7859 27.9766C32.1513 27.9766 32.5168 27.9766 32.8822 27.9766C37.9985 27.9766 42.2012 32.2604 42.2012 37.4755V38.8724M24.0993 14.3559C24.0993 17.8662 21.2536 20.7118 17.7434 20.7118C14.2331 20.7118 11.3875 17.8662 11.3875 14.3559C11.3875 10.8456 14.2331 8 17.7434 8C21.2536 8 24.0993 10.8456 24.0993 14.3559ZM37.4634 17.9892C37.4634 20.4965 35.4308 22.5291 32.9235 22.5291C30.4161 22.5291 28.3835 20.4965 28.3835 17.9892C28.3835 15.4818 30.4161 13.4492 32.9235 13.4492C35.4308 13.4492 37.4634 15.4818 37.4634 17.9892Z" stroke="url(#paint0_linear_2660_7149)" stroke-width="3" stroke-miterlimit="10" stroke-linecap="round" stroke-linejoin="round"></path> <defs><linearGradient id="paint0_linear_2660_7149" x1="24.2006" y1="8" x2="24.2006" y2="38.8724" gradientUnits="userSpaceOnUse"><stop stop-color="#14A800"></stop> <stop offset="1" stop-color="#6ED06E"></stop></linearGradient></defs></svg>