<svg xmlns="http://www.w3.org/2000/svg" width="49" height="48" viewBox="0 0 49 48" fill="none"><path d="M24.3 37.5V5.5M9.29999 5.5H39.3M6.29999 21.5L12.3 9.5L18.3 21.5M6.29999 21.5H18.3M6.29999 21.5C6.29999 23.0913 6.93213 24.6174 8.05735 25.7426C9.18257 26.8679 10.7087 27.5 12.3 27.5C13.8913 27.5 15.4174 26.8679 16.5426 25.7426C17.6678 24.6174 18.3 23.0913 18.3 21.5M30.3 21.5L36.3 9.5L42.3 21.5M30.3 21.5H42.3M30.3 21.5C30.3 23.0913 30.9321 24.6174 32.0573 25.7426C33.1826 26.8679 34.7087 27.5 36.3 27.5C37.8913 27.5 39.4174 26.8679 40.5426 25.7426C41.6678 24.6174 42.3 23.0913 42.3 21.5M16.3 37.5H32.3C33.3609 37.5 34.3783 37.9214 35.1284 38.6716C35.8786 39.4217 36.3 40.4391 36.3 41.5H12.3C12.3 40.4391 12.7214 39.4217 13.4716 38.6716C14.2217 37.9214 15.2391 37.5 16.3 37.5Z" stroke="url(#paint0_linear_2660_7143)" stroke-width="3" stroke-linecap="round" stroke-linejoin="round"></path> <defs><linearGradient id="paint0_linear_2660_7143" x1="24.3" y1="5.5" x2="24.3" y2="41.5" gradientUnits="userSpaceOnUse"><stop stop-color="#14A800"></stop> <stop offset="1" stop-color="#6ED06E"></stop></linearGradient></defs></svg>