<svg xmlns="http://www.w3.org/2000/svg" width="49" height="48" viewBox="0 0 49 48" fill="none"><path d="M16.3799 26.5553L14.0989 28.8363C13.0485 29.8867 11.3078 29.8867 10.2573 28.8363C9.20687 27.7859 9.20687 26.0451 10.2573 24.9947L19.8614 15.3906M17.9427 32.6776C16.8922 33.728 15.1515 33.728 14.1011 32.6776C13.0506 31.6271 13.0506 29.8864 14.1011 28.8359M24.0635 34.2401L21.7825 36.521C20.7321 37.5715 18.9914 37.5715 17.9409 36.521C16.8905 35.4706 16.8905 33.7298 17.9409 32.6794L20.2219 30.3984M24.1231 11.1289L30.936 17.9418C31.9865 18.9922 31.8964 20.823 30.7259 21.9935C29.5554 23.164 27.7247 23.254 26.6742 22.2036L19.8914 15.4207M24.1256 11.1305L25.4162 9.83997C27.307 7.94918 30.3683 7.94918 32.2591 9.83997L40.7827 18.3636C42.6735 20.2544 42.6735 23.3157 40.7827 25.2065L25.6263 40.3629C24.5758 41.4133 22.8351 41.4133 21.7847 40.3629C20.7342 39.3124 20.7342 37.5717 21.7847 36.5212M9.29876 25.9551L7.61805 24.2744C5.72725 22.3836 5.72725 19.3223 7.61805 17.4315L15.6014 9.4181C17.4922 7.5273 20.5535 7.5273 22.4443 9.4181L24.125 11.0988" stroke="url(#paint0_linear_2660_5626)" stroke-width="3" stroke-linecap="round" stroke-linejoin="round"></path> <defs><linearGradient id="paint0_linear_2660_5626" x1="24.2004" y1="8" x2="24.2004" y2="41.1507" gradientUnits="userSpaceOnUse"><stop stop-color="#14A800"></stop> <stop offset="1" stop-color="#6ED06E"></stop></linearGradient></defs></svg>