<svg xmlns="http://www.w3.org/2000/svg" width="49" height="48" viewBox="0 0 49 48" fill="none"><path d="M6.65851 41.9631L18.098 30.5236M35.2182 21.4646C35.2182 21.4646 30.5721 28.0433 31.5091 35.1295L6.59998 41.962L13.53 17.1114C20.5772 18.0484 27.1949 13.4023 27.1949 13.4023L35.2182 21.4646ZM30.91 7.38036L41.2213 17.6917C41.9837 18.454 41.9837 19.69 41.2213 20.4524L39.0818 22.592C38.3194 23.3543 37.0834 23.3543 36.321 22.592L26.0097 12.2806C25.2474 11.5183 25.2474 10.2823 26.0097 9.51992L28.1493 7.38036C28.9117 6.61801 30.1477 6.61801 30.91 7.38036ZM23.0189 28.4751C23.0189 30.0707 21.7254 31.3642 20.1297 31.3642C18.5341 31.3642 17.2406 30.0707 17.2406 28.4751C17.2406 26.8794 18.5341 25.5859 20.1297 25.5859C21.7254 25.5859 23.0189 26.8794 23.0189 28.4751Z" stroke="url(#paint0_linear_2660_7137)" stroke-width="3" stroke-linecap="round" stroke-linejoin="round"></path> <defs><linearGradient id="paint0_linear_2660_7137" x1="24.1965" y1="6.80859" x2="24.1965" y2="41.9631" gradientUnits="userSpaceOnUse"><stop stop-color="#14A800"></stop> <stop offset="1" stop-color="#6ED06E"></stop></linearGradient></defs></svg>